<svg id="delivery_icon" data-name="delivery icon" xmlns="http://www.w3.org/2000/svg" width="23.567" height="14.141" viewBox="0 0 23.567 14.141">
  <path id="Path_121" data-name="Path 121" d="M.2,44.443H3.513v-.389H.4V35.973H4.929l5.486,4.793v3.288H7.347v.389h3.267l.2-.194v-3.57l-.066-.145-5.609-4.9-.132-.049H.2l-.2.194v8.47Z" transform="translate(12.755 -32.632)" fill="#0d0d0d"/>
  <path id="Path_122" data-name="Path 122" d="M125.77,93.656h3.077v-.389h-2.878V90.661h12.557v-.389H125.77l-.2.194v2.995Z" transform="translate(-125.572 -82.782)" fill="#0d0d0d"/>
  <rect id="Rectangle_1455" data-name="Rectangle 1455" width="6.962" height="0.389" transform="translate(5.991 10.485)" fill="#0d0d0d"/>
  <path id="Path_123" data-name="Path 123" d="M36.639,49.577H30.33V46.911h3.257Zm-6.507.389h7.027l.132-.34-3.5-3.055-.132-.049H30.132l-.2.194v3.055Z" transform="translate(-16.254 -42.662)" fill="#0d0d0d"/>
  <rect id="Rectangle_1456" data-name="Rectangle 1456" width="1.078" height="0.389" transform="translate(14.217 7.913)" fill="#0d0d0d"/>
  <path id="Path_124" data-name="Path 124" d="M40.787,120.192a1.712,1.712,0,1,1-1.744,1.712A1.729,1.729,0,0,1,40.787,120.192Zm0,3.812a2.1,2.1,0,1,0-2.14-2.1A2.122,2.122,0,0,0,40.787,124Z" transform="translate(-22.626 -109.863)" fill="#0d0d0d"/>
  <path id="Path_125" data-name="Path 125" d="M200.84,120.192A1.712,1.712,0,1,1,199.1,121.9,1.729,1.729,0,0,1,200.84,120.192Zm0,3.812a2.1,2.1,0,1,0-2.14-2.1A2.122,2.122,0,0,0,200.84,124Z" transform="translate(-196.207 -109.863)" fill="#0d0d0d"/>
  <path id="Path_126" data-name="Path 126" d="M123.778,7.684h.4V.389h12.269v7.3h.4V.194l-.2-.194H123.976l-.2.194Z" transform="translate(-123.734 0)" fill="#0d0d0d"/>
  <path id="Path_127" data-name="Path 127" d="M87.231,57.179a.534.534,0,0,0-.535-.539h-.969a.139.139,0,0,1-.134-.1l-.376-1.368a.772.772,0,0,0-.5-.526l-.129.368a.381.381,0,0,1,.246.259l.377,1.369a.534.534,0,0,0,.516.388H86.7a.138.138,0,0,1,.139.136Z" transform="translate(-70.814 -50.11)" fill="#0d0d0d"/>
  <path id="Path_128" data-name="Path 128" d="M55.583,72.385l.28-.275-1.1-1.079-.28.275Z" transform="translate(-36.9 -65.138)" fill="#0d0d0d"/>
  <path id="Path_129" data-name="Path 129" d="M61.572,66.1l1.052-1.036-.28-.275-1.052,1.036Z" transform="translate(-44.237 -59.415)" fill="#0d0d0d"/>
  <path id="Path_130" data-name="Path 130" d="M2.711,111.548H4.544v-.389H2.909v-.648H4.544v-.389H2.711l-.2.194v1.037Z" transform="translate(18.81 -100.985)" fill="#0d0d0d"/>
  <path id="Path_131" data-name="Path 131" d="M92.128,6.182h.4A2.761,2.761,0,0,0,89.742,3.45h-.211v.389h.211A2.367,2.367,0,0,1,92.128,6.182Z" transform="translate(-76.525 -3.164)" fill="#0d0d0d"/>
</svg>
