<svg xmlns="http://www.w3.org/2000/svg" width="22.909" height="18" viewBox="0 0 22.909 18">
  <g id="envelope" opacity="0.5">
    <g id="Group_4220" data-name="Group 4220">
      <path id="Path_995" data-name="Path 995" d="M2.2,60.4q.435.309,2.621,1.833t3.349,2.347q.128.09.543.392t.69.489q.275.186.665.418a3.846,3.846,0,0,0,.735.347,2.015,2.015,0,0,0,.639.116h.026a2.016,2.016,0,0,0,.639-.116,3.85,3.85,0,0,0,.735-.347q.39-.232.665-.418t.69-.489q.415-.3.543-.392l5.983-4.18a6.092,6.092,0,0,0,1.559-1.582,3.41,3.41,0,0,0,.627-1.942,2.069,2.069,0,0,0-2.046-2.058H2.045a1.821,1.821,0,0,0-1.515.669A2.606,2.606,0,0,0,0,57.16a3.014,3.014,0,0,0,.7,1.756A6.363,6.363,0,0,0,2.2,60.4Z" transform="translate(0 -54.82)" fill="#fff"/>
      <path id="Path_996" data-name="Path 996" d="M21.631,185.546q-4.193,2.83-6.366,4.4-.729.535-1.183.835a7.306,7.306,0,0,1-1.208.612,3.687,3.687,0,0,1-1.406.312h-.026a3.689,3.689,0,0,1-1.406-.312,7.31,7.31,0,0,1-1.208-.612q-.454-.3-1.182-.835-1.726-1.262-6.354-4.4A6.766,6.766,0,0,1,0,184.437v10.122A1.961,1.961,0,0,0,.6,196a1.972,1.972,0,0,0,1.445.6H20.864a2.049,2.049,0,0,0,2.045-2.04V184.437A7.044,7.044,0,0,1,21.631,185.546Z" transform="translate(0 -178.599)" fill="#fff"/>
    </g>
  </g>
</svg>
