<svg id="Message_icon_2" data-name="Message icon 2" xmlns="http://www.w3.org/2000/svg" width="29" height="29" viewBox="0 0 29 29">
  <rect id="Rectangle_3418" data-name="Rectangle 3418" width="29" height="29" rx="14.5" fill="#dffae9"/>
  <g id="black-back-closed-envelope-shape" transform="translate(7.219 7.941)">
    <g id="Group_4229" data-name="Group 4229">
      <path id="Path_1004" data-name="Path 1004" d="M29.988,328.053a1.267,1.267,0,0,0,.867-.327l-4.2-4.2-.291.209q-.471.347-.765.542a4.712,4.712,0,0,1-.782.4,2.382,2.382,0,0,1-.91.2h-.016a2.382,2.382,0,0,1-.91-.2,4.7,4.7,0,0,1-.782-.4q-.294-.194-.765-.542l-.29-.21-4.2,4.2a1.267,1.267,0,0,0,.867.327Z" transform="translate(-16.49 -316.407)" fill="#3ec471"/>
      <path id="Path_1005" data-name="Path 1005" d="M.835,199.275a4.385,4.385,0,0,1-.835-.72v6.389l3.7-3.7Q2.59,200.467.835,199.275Z" transform="translate(0 -194.8)" fill="#3ec471"/>
      <path id="Path_1006" data-name="Path 1006" d="M416.182,199.275q-1.69,1.144-2.872,1.97l3.7,3.7v-6.389A4.561,4.561,0,0,1,416.182,199.275Z" transform="translate(-402.187 -194.8)" fill="#3ec471"/>
      <path id="Path_1007" data-name="Path 1007" d="M13.5,59.013H1.329a1.181,1.181,0,0,0-.98.43,1.669,1.669,0,0,0-.343,1.075,1.933,1.933,0,0,0,.455,1.129,4.1,4.1,0,0,0,.968.955q.281.2,1.7,1.179c.509.353.952.66,1.332.926l.835.584.124.088.228.164q.269.194.447.314t.43.269a2.509,2.509,0,0,0,.476.223,1.316,1.316,0,0,0,.414.074h.016a1.317,1.317,0,0,0,.414-.074,2.5,2.5,0,0,0,.476-.223q.252-.149.43-.269t.447-.314l.228-.164.124-.088.837-.582L13.413,62.6a3.934,3.934,0,0,0,1.009-1.017,2.188,2.188,0,0,0,.405-1.249A1.334,1.334,0,0,0,13.5,59.013Z" transform="translate(-0.006 -59.013)" fill="#3ec471"/>
    </g>
  </g>
</svg>
