<svg xmlns="http://www.w3.org/2000/svg" width="16.018" height="19" viewBox="0 0 16.018 19">
  <g id="notification" transform="translate(0.509 0.5)">
    <g id="Group_4217" data-name="Group 4217">
      <g id="Group_4216" data-name="Group 4216">
        <path id="Path_993" data-name="Path 993" d="M57.621,15.182l-1.288-2.146a6.376,6.376,0,0,1-.909-3.28V7.875a5.257,5.257,0,0,0-3.75-5.029V1.5a1.5,1.5,0,1,0-3,0V2.846a5.257,5.257,0,0,0-3.75,5.029v1.88a6.38,6.38,0,0,1-.908,3.28l-1.288,2.146a.376.376,0,0,0,.321.569H57.3a.375.375,0,0,0,.322-.568Z" transform="translate(-42.675)" fill="#fff" stroke="#fff" stroke-width="1"/>
      </g>
    </g>
    <g id="Group_4219" data-name="Group 4219" transform="translate(5.138 16.5)">
      <g id="Group_4218" data-name="Group 4218">
        <path id="Path_994" data-name="Path 994" d="M188.815,469.333a2.609,2.609,0,0,0,4.723,0Z" transform="translate(-188.815 -469.333)" fill="#fff" stroke="#fff" stroke-width="1"/>
      </g>
    </g>
  </g>
</svg>
