<svg xmlns="http://www.w3.org/2000/svg" width="13.959" height="17.062" viewBox="0 0 13.959 17.062">
  <path id="Path_120" data-name="Path 120" d="M1347.713,1296.52q-.26.134-.512.235a6.575,6.575,0,0,1-6.718-1.23,6.221,6.221,0,0,1-1.156-1.535h4.836v-2.146h-5.483a6.961,6.961,0,0,1-.042-.761,7.159,7.159,0,0,1,.056-.892h5.47v-2.145h-4.789a6.37,6.37,0,0,1,1.109-1.469,5.633,5.633,0,0,1,4.354-1.706,6.479,6.479,0,0,1,2.11.357l1.05-2.119a7.517,7.517,0,0,0-2.98-.621,8.442,8.442,0,0,0-6.83,2.92,8.92,8.92,0,0,0-1.631,2.64h-2.246v2.145h1.731a8.794,8.794,0,0,0-.048.913c0,.251.012.5.031.74h-1.714v2.146h2.173a8.615,8.615,0,0,0,8.332,5.559,9.614,9.614,0,0,0,3.454-.637Z" transform="translate(-1334.309 -1282.487)" fill="#434343"/>
</svg>
