<svg xmlns="http://www.w3.org/2000/svg" width="10" height="5.714" viewBox="0 0 10 5.714">
  <g id="sort-down_1_" data-name="sort-down (1)" transform="translate(10 5.714) rotate(180)">
    <path id="Path_27" data-name="Path 27" d="M9.814.188A.6.6,0,0,0,9.375,0H.625a.6.6,0,0,0-.44.188A.615.615,0,0,0,0,.635a.615.615,0,0,0,.186.446L4.56,5.526a.606.606,0,0,0,.879,0L9.814,1.081A.615.615,0,0,0,10,.635.616.616,0,0,0,9.814.188Z" transform="translate(10 5.714) rotate(180)" fill="#fff"/>
  </g>
</svg>
